<svg width="306" height="306" viewBox="0 0 306 306" fill="none" xmlns="http://www.w3.org/2000/svg">
<mask id="mask0_48_964" style="mask-type:alpha" maskUnits="userSpaceOnUse" x="0" y="0" width="306" height="306">
<path d="M0.108398 153.48C0.108398 27.896 27.0246 0.979736 152.608 0.979736C278.192 0.979736 305.108 27.896 305.108 153.48C305.108 279.063 278.192 305.98 152.608 305.98C27.0246 305.98 0.108398 279.063 0.108398 153.48Z" fill="#C4C4C4"/>
</mask>
<g mask="url(#mask0_48_964)">
<rect width="305" height="305" transform="translate(-0.891602 0.979736)" fill="#FACA30"/>
<mask id="mask1_48_964" style="mask-type:alpha" maskUnits="userSpaceOnUse" x="51" y="52" width="203" height="203">
<rect x="51.6306" y="52.502" width="201.955" height="201.955" fill="#D9D9D9"/>
</mask>
<g mask="url(#mask1_48_964)">
<path d="M247.952 191.5H247.944C247.944 178.976 238.117 168.505 225.644 168.143C218.644 167.941 211.935 170.951 207.417 176.321C203.215 171.34 196.945 168.155 189.93 168.155C177.285 168.155 167.041 178.418 167.041 191.11V220.379H177.693V191.5C177.693 184.748 183.196 179.06 189.922 179.125C196.512 179.216 201.823 184.575 201.879 191.19V220.375H212.827V191.439C212.827 184.708 218.317 179.028 225.028 179.084C231.613 179.16 236.934 184.5 237.012 191.11V220.379H247.952V191.5Z" fill="black"/>
<path d="M152.608 161.894L85.2899 119.82V203.968H161.023V220.798H85.2899C80.6618 220.798 76.6998 219.15 73.404 215.854C70.1082 212.559 68.4603 208.597 68.4603 203.968V102.991C68.4603 98.3626 70.1082 94.4006 73.404 91.1048C76.6998 87.809 80.6618 86.1611 85.2899 86.1611H219.927C224.555 86.1611 228.517 87.809 231.813 91.1048C235.109 94.4006 236.757 98.3626 236.757 102.991V161.894H219.927V119.82L152.608 161.894ZM152.608 145.065L219.927 102.991H85.2899L152.608 145.065ZM85.2899 119.82V212.383V161.894V162.526V102.991V119.82Z" fill="#1C1B1F"/>
</g>
</g>
</svg>
